<?xml version="1.0" encoding="utf-8"?>
<svg xmlns="http://www.w3.org/2000/svg" xmlns:xlink="http://www.w3.org/1999/xlink" style="margin: auto; background-image: none; display: block; shape-rendering: auto; background-position: initial initial; background-repeat: initial initial;" width="244px" height="244px" viewBox="0 0 100 100" preserveAspectRatio="xMidYMid">
<g transform="rotate(0 50 50)">
  <rect x="37.5" y="40.5" rx="4.25" ry="0.5" width="25" height="1" fill="#00bcd4">
    <animate attributeName="opacity" values="1;0" keyTimes="0;1" dur="0.8849557522123893s" begin="-0.8168822328114362s" repeatCount="indefinite"></animate>
  </rect>
</g><g transform="rotate(27.692307692307693 50 50)">
  <rect x="37.5" y="40.5" rx="4.25" ry="0.5" width="25" height="1" fill="#b2ebf2">
    <animate attributeName="opacity" values="1;0" keyTimes="0;1" dur="0.8849557522123893s" begin="-0.7488087134104833s" repeatCount="indefinite"></animate>
  </rect>
</g><g transform="rotate(55.38461538461539 50 50)">
  <rect x="37.5" y="40.5" rx="4.25" ry="0.5" width="25" height="1" fill="#ff5722">
    <animate attributeName="opacity" values="1;0" keyTimes="0;1" dur="0.8849557522123893s" begin="-0.6807351940095302s" repeatCount="indefinite"></animate>
  </rect>
</g><g transform="rotate(83.07692307692308 50 50)">
  <rect x="37.5" y="40.5" rx="4.25" ry="0.5" width="25" height="1" fill="#dd2c00">
    <animate attributeName="opacity" values="1;0" keyTimes="0;1" dur="0.8849557522123893s" begin="-0.6126616746085772s" repeatCount="indefinite"></animate>
  </rect>
</g><g transform="rotate(110.76923076923077 50 50)">
  <rect x="37.5" y="40.5" rx="4.25" ry="0.5" width="25" height="1" fill="#00bcd4">
    <animate attributeName="opacity" values="1;0" keyTimes="0;1" dur="0.8849557522123893s" begin="-0.5445881552076242s" repeatCount="indefinite"></animate>
  </rect>
</g><g transform="rotate(138.46153846153845 50 50)">
  <rect x="37.5" y="40.5" rx="4.25" ry="0.5" width="25" height="1" fill="#b2ebf2">
    <animate attributeName="opacity" values="1;0" keyTimes="0;1" dur="0.8849557522123893s" begin="-0.47651463580667114s" repeatCount="indefinite"></animate>
  </rect>
</g><g transform="rotate(166.15384615384616 50 50)">
  <rect x="37.5" y="40.5" rx="4.25" ry="0.5" width="25" height="1" fill="#ff5722">
    <animate attributeName="opacity" values="1;0" keyTimes="0;1" dur="0.8849557522123893s" begin="-0.4084411164057181s" repeatCount="indefinite"></animate>
  </rect>
</g><g transform="rotate(193.84615384615384 50 50)">
  <rect x="37.5" y="40.5" rx="4.25" ry="0.5" width="25" height="1" fill="#dd2c00">
    <animate attributeName="opacity" values="1;0" keyTimes="0;1" dur="0.8849557522123893s" begin="-0.3403675970047651s" repeatCount="indefinite"></animate>
  </rect>
</g><g transform="rotate(221.53846153846155 50 50)">
  <rect x="37.5" y="40.5" rx="4.25" ry="0.5" width="25" height="1" fill="#00bcd4">
    <animate attributeName="opacity" values="1;0" keyTimes="0;1" dur="0.8849557522123893s" begin="-0.2722940776038121s" repeatCount="indefinite"></animate>
  </rect>
</g><g transform="rotate(249.23076923076923 50 50)">
  <rect x="37.5" y="40.5" rx="4.25" ry="0.5" width="25" height="1" fill="#b2ebf2">
    <animate attributeName="opacity" values="1;0" keyTimes="0;1" dur="0.8849557522123893s" begin="-0.20422055820285906s" repeatCount="indefinite"></animate>
  </rect>
</g><g transform="rotate(276.9230769230769 50 50)">
  <rect x="37.5" y="40.5" rx="4.25" ry="0.5" width="25" height="1" fill="#ff5722">
    <animate attributeName="opacity" values="1;0" keyTimes="0;1" dur="0.8849557522123893s" begin="-0.13614703880190604s" repeatCount="indefinite"></animate>
  </rect>
</g><g transform="rotate(304.61538461538464 50 50)">
  <rect x="37.5" y="40.5" rx="4.25" ry="0.5" width="25" height="1" fill="#dd2c00">
    <animate attributeName="opacity" values="1;0" keyTimes="0;1" dur="0.8849557522123893s" begin="-0.06807351940095302s" repeatCount="indefinite"></animate>
  </rect>
</g><g transform="rotate(332.3076923076923 50 50)">
  <rect x="37.5" y="40.5" rx="4.25" ry="0.5" width="25" height="1" fill="#00bcd4">
    <animate attributeName="opacity" values="1;0" keyTimes="0;1" dur="0.8849557522123893s" begin="0s" repeatCount="indefinite"></animate>
  </rect>
</g>
<!-- [ldio] generated by https://loading.io/ --></svg>