<svg xmlns="http://www.w3.org/2000/svg" viewBox="0 0 718.94 236.07"><defs><style>.cls-1{fill:#fff;}</style></defs><g id="Layer_2" data-name="Layer 2"><g id="Layer_1-2" data-name="Layer 1"><path class="cls-1" d="M10.79,142.38A112.07,112.07,0,0,1,93.69,7.51L91.9,0a119.66,119.66,0,0,0,55.55,232.79l-1.79-7.51A112.08,112.08,0,0,1,10.79,142.38Z"/><path class="cls-1" d="M136.36,132.82a5.69,5.69,0,0,1,5.52-9l1.22-7.64A5.7,5.7,0,0,1,140.65,106l-4.54-6.26a5.69,5.69,0,0,1-9-5.51l9.55-59.64-2-12a19.69,19.69,0,0,0-2.62-3.83,19,19,0,0,0-14.76-6.53A104.55,104.55,0,0,0,74.72,22.35a19.12,19.12,0,0,0-10.8,17.1,19.22,19.22,0,0,0-4.54-.89,19,19,0,0,0-15.06,5.82,105,105,0,0,0-22.93,37.3A19,19,0,0,0,23,97.75a19.51,19.51,0,0,0,2.84,3.65A20,20,0,0,0,22,104a19,19,0,0,0-6.53,14.76,105.45,105.45,0,0,0,10.16,42.59,19,19,0,0,0,12.5,10.22,19.47,19.47,0,0,0,4.6.59,19.14,19.14,0,0,0-.89,4.53,18.94,18.94,0,0,0,5.82,15.06A104.62,104.62,0,0,0,85,214.68,19,19,0,0,0,101,213.07a19.51,19.51,0,0,0,3.65-2.84,19.52,19.52,0,0,0,2.6,3.84A18.92,18.92,0,0,0,122,220.6a104.57,104.57,0,0,0,42.59-10.17,19.24,19.24,0,0,0,10.82-17.09l-3.63-11.62Zm-5.58-24.47a13.21,13.21,0,0,0,2.44,10.21,13.17,13.17,0,0,0-5.5,8.94,13.48,13.48,0,0,0-5.36.16,13.18,13.18,0,0,0-4.83,2.27,13.21,13.21,0,0,0-9-5.49,13.18,13.18,0,0,0-2.44-10.21,13.2,13.2,0,0,0,5.52-8.94,13.16,13.16,0,0,0,10.19-2.44,13.17,13.17,0,0,0,8.94,5.5ZM72,36.75a11.29,11.29,0,0,1,6.07-7.43,96.82,96.82,0,0,1,39.43-9.41,11.27,11.27,0,0,1,8.77,3.89A11.67,11.67,0,0,1,129,33.33L119.5,93a5.7,5.7,0,0,1-10.24,2.44L73.84,46.49h0A11.7,11.7,0,0,1,72,36.75ZM28.67,84.25A96.87,96.87,0,0,1,49.9,49.72a11.28,11.28,0,0,1,9-3.46,11.7,11.7,0,0,1,8.69,4.8L103,100a5.7,5.7,0,0,1-5.51,9L37.84,99.38a11.64,11.64,0,0,1-8.2-5.58A11.32,11.32,0,0,1,28.67,84.25ZM40,164.08A11.25,11.25,0,0,1,32.6,158a97.47,97.47,0,0,1-9.42-39.44,11.31,11.31,0,0,1,3.9-8.77,11.62,11.62,0,0,1,9.53-2.75l59.65,9.51a5.7,5.7,0,0,1,2.44,10.24L49.78,162.23h0A11.7,11.7,0,0,1,40,164.08ZM167.36,196a11.25,11.25,0,0,1-6.06,7.44,96.92,96.92,0,0,1-39.44,9.41,11.27,11.27,0,0,1-8.77-3.89,11.69,11.69,0,0,1-2.75-9.53l2.45-15.37-7.62-1.22v0h0l-2.45,15.34a11.69,11.69,0,0,1-5.58,8.2,11.28,11.28,0,0,1-9.55,1,96.34,96.34,0,0,1-18.39-8.79A97.43,97.43,0,0,1,53,186.17a11.32,11.32,0,0,1-3.45-9,11.68,11.68,0,0,1,4.8-8.68l48.9-35.45a5.69,5.69,0,0,1,9,5.51L106.38,175l7.62,1.22h0l5.8-36.39a5.7,5.7,0,0,1,10.24-2.44l35.42,48.92A11.66,11.66,0,0,1,167.36,196Z"/><rect class="cls-1" x="42.62" y="138.96" width="15.91" height="7.72" transform="translate(-60.15 39.41) rotate(-27.46)"/><rect class="cls-1" x="53.51" y="113.39" width="7.72" height="15.91" transform="translate(-64.59 177.42) rotate(-89.39)"/><rect class="cls-1" x="28.46" y="128.49" width="15.44" height="7.72" transform="translate(-29.73 12.01) rotate(-13.42)"/><rect class="cls-1" x="78.36" y="122.93" width="12.21" height="7.72" transform="translate(-54.21 63.72) rotate(-31.87)"/><rect class="cls-1" x="81.53" y="180.06" width="15.92" height="7.72" transform="translate(-112.85 213.85) rotate(-72.47)"/><rect class="cls-1" x="71.16" y="160.09" width="15.92" height="7.72" transform="translate(-92.1 102.1) rotate(-44.38)"/><rect class="cls-1" x="64.2" y="182.86" width="15.44" height="7.72" transform="translate(-124.82 150.24) rotate(-58.43)"/><rect class="cls-1" x="96.02" y="144.79" width="12.21" height="7.72" transform="translate(-65.86 214.29) rotate(-76.86)"/><rect class="cls-1" x="142.23" y="177.54" width="7.72" height="15.91" transform="translate(-69.05 88.21) rotate(-27.44)"/><rect class="cls-1" x="116.67" y="174.86" width="15.91" height="7.72" transform="translate(-55.41 301.43) rotate(-89.39)"/><rect class="cls-1" x="131.77" y="192.17" width="7.72" height="15.44" transform="translate(-42.7 36.94) rotate(-13.42)"/><rect class="cls-1" x="126.21" y="145.51" width="7.72" height="12.21" transform="translate(-60.45 91.54) rotate(-31.87)"/><rect class="cls-1" x="89.41" y="39.34" width="7.72" height="15.91" transform="translate(-11.3 48.31) rotate(-27.45)"/><rect class="cls-1" x="106.78" y="50.23" width="15.91" height="7.72" transform="translate(59.42 168.24) rotate(-89.39)"/><rect class="cls-1" x="99.86" y="25.18" width="7.72" height="15.44" transform="translate(-4.8 24.97) rotate(-13.42)"/><rect class="cls-1" x="105.43" y="75.07" width="7.72" height="12.21" transform="translate(-26.38 69.95) rotate(-31.87)"/><rect class="cls-1" x="48.28" y="78.26" width="7.72" height="15.92" transform="translate(-45.79 109.94) rotate(-72.45)"/><rect class="cls-1" x="68.26" y="67.87" width="7.72" height="15.92" transform="translate(-32.46 72.1) rotate(-44.39)"/><rect class="cls-1" x="45.49" y="60.92" width="7.72" height="15.44" transform="translate(-34.96 74.74) rotate(-58.42)"/><rect class="cls-1" x="83.57" y="92.73" width="7.72" height="12.21" transform="translate(-28.7 161.5) rotate(-76.86)"/><path class="cls-1" d="M234.92,106.43q5.07-5.61,20.48-34.3t22.22-35.9a112.88,112.88,0,0,1,10.81-9.87c3.12-2.49,4.67-4,4.67-4.41,0-1.6-1.55-2.4-4.67-2.4a37.06,37.06,0,0,0-4.07,1.8,18.07,18.07,0,0,1-7.81,1.81q-9.33,0-25.22-4.08t-21-4.07q-10.55,0-17.22,6.48a21.2,21.2,0,0,0-6.67,15.81,26.47,26.47,0,0,0,.94,7.87c.53,1.61,1.11,2.41,1.73,2.41,1,0,1.47-.45,1.47-1.34A5.77,5.77,0,0,0,210,45a5.71,5.71,0,0,1-.67-2.8,12.63,12.63,0,0,1,3.27-8.81,10.21,10.21,0,0,1,7.81-3.6q6,0,18.22,2.33T254.4,34.5a31.49,31.49,0,0,0,7.88-.67v.54q-11.22,5.46-23.63,30.42l-9.34,19.75q-6.41,12.81-12.68,19.35-8.4,8.82-18.15,8.81T183,106q-5.34-6.14-5.33-16a25.61,25.61,0,0,1,5-16q5-6.61,12.34-6.61a11.75,11.75,0,0,1,9.48,4.81,17.52,17.52,0,0,1,3.87,11.34,21.77,21.77,0,0,1-3.2,11.08c-1.6,2.75-3.07,4.58-4.41,5.47a13.6,13.6,0,0,1-2.67,1.2c-.89.35-1.33.62-1.33.8,0,.44,1.11.67,3.34.67a23.54,23.54,0,0,0,16.08-5.67,18.72,18.72,0,0,0,6.47-14.75,19.28,19.28,0,0,0-7.07-15q-7.08-6.21-17.49-6.21-11.34,0-20.55,9.21-9.47,9.6-9.47,22.15,0,14.82,8.74,23.56t22.35,8.74A39.72,39.72,0,0,0,218.77,120Q226.38,115.9,234.92,106.43Z"/><path class="cls-1" d="M593.63,44.84A11.92,11.92,0,0,0,601.91,48a13.06,13.06,0,0,0,9-3.54,11.27,11.27,0,0,0,3.94-8.74,10.11,10.11,0,0,0-3.47-7.81,11.91,11.91,0,0,0-8.27-3.13,13.12,13.12,0,0,0-9,3.53A11.27,11.27,0,0,0,590.16,37,10.1,10.1,0,0,0,593.63,44.84Z"/><path class="cls-1" d="M717.34,87.21q-.27,0-5.6,6.81a77.34,77.34,0,0,1-12,12.81q-8.55,6.81-16.42,6.81-7.06,0-7.07-9.61c0-3,.93-6.67,2.8-11a4.94,4.94,0,0,0,1.2.14,38.3,38.3,0,0,0,26.16-9.88q10.14-8.81,10.14-17.48A10.76,10.76,0,0,0,714,58.79a7.36,7.36,0,0,0-5.74-3.07,22.76,22.76,0,0,0-4.34.73,25.61,25.61,0,0,1-5.81.74q-12.68,0-25.62,17.35a71.7,71.7,0,0,0-9.26,15.85q-2.29,3-6.62,8.5-9.35,11.94-13.48,11.94c-2,0-3.07-.93-3.07-2.8q0-3.47,7.74-19.08l9.08-17.48q3.47-6.94,3.47-9.48,0-1.86-3.81-3.8A16.49,16.49,0,0,0,649,56.25q-4.66,0-14.28,9.21L624.06,76.4l-.14-.13,2.94-7.34c1.51-4,2.27-6.72,2.27-8.14q0-2.4-3.87-4.14a13.77,13.77,0,0,0-5.34-1.33q-4,0-17.88,27.49-1.74,3.45-3.25,6.55c-.81,1-1.86,2.4-3.16,4.13a138.91,138.91,0,0,1-9.74,12.14q-6.27,6.54-9.87,6.54c-1.25,0-1.87-.94-1.87-2.8q0-5.75,10.41-26.16L597,59.86a2.42,2.42,0,0,0,.4-1.07q0-2.94-8-2.94a14.65,14.65,0,0,0-3.47.27q-5.73,2.4-16.41,21.35-3.6,6.42-6,11.94c-.48.62-1,1.39-1.71,2.34q-4.28,5.75-6.67,8.67-9,10.81-13.88,10.81c-1.25,0-1.87-.66-1.87-2q0-6.93,7.47-19.48A93.69,93.69,0,0,1,558.13,74c.27-.35,1.83-1.78,4.68-4.27q2.4-2.13,2.4-3.6,0-2.53-3-6.47t-5.67-3.94q-.39,0-6.14.53t-9.47.54c-2,0-2.94-.32-2.94-.94,0,.09.23-.31.67-1.2a6.42,6.42,0,0,0,.67-2.94c0-2.31-1-3.46-3.07-3.46a7.66,7.66,0,0,0-5.87,2.13q-1.47,1.47-3.21,5.87-.79,1.88-3.07,9.08A76.08,76.08,0,0,1,520,76a138.74,138.74,0,0,1-8.25,14.28c-.81,1-1.78,2.24-3,3.74a77.34,77.34,0,0,1-12,12.81q-8.55,6.81-16.42,6.81-7.06,0-7.07-9.61c0-3,.93-6.67,2.8-11a4.94,4.94,0,0,0,1.2.14,38.3,38.3,0,0,0,26.16-9.88q10.14-8.81,10.14-17.48A10.76,10.76,0,0,0,511,58.79a7.36,7.36,0,0,0-5.74-3.07,22.76,22.76,0,0,0-4.34.73,25.53,25.53,0,0,1-5.8.74q-12.69,0-25.63,17.35-12.27,16.41-12.27,30a22.22,22.22,0,0,0,4.67,14.21q4.66,5.94,11.47,5.94,10,0,21-7.47a72.3,72.3,0,0,0,15.48-14.95,48.23,48.23,0,0,0,5.1-7.47Q525.7,78.95,531,70.13a1.2,1.2,0,0,1,1.07-.4,12.67,12.67,0,0,1,4.14.93c1.69.63,2.53,1,2.53,1.21q0-.14-4.67,7.07a159.31,159.31,0,0,0-8.67,15q-4.68,9.74-4.67,15.48,0,6.93,4.13,10.74a15.39,15.39,0,0,0,10.81,3.8q5.2,0,13.22-7.6a89.4,89.4,0,0,0,9.54-10.67,27.72,27.72,0,0,0-.2,3.19,19,19,0,0,0,3.07,10.68q3.06,4.67,7.87,4.67,6.27,0,14.81-7.87c1.83-1.68,3.64-3.53,5.45-5.55a15.64,15.64,0,0,0-.91,4.21,8.22,8.22,0,0,0,3.07,6.14q3.07,2.81,5.47,2.8,1.6,0,4.67-5.34l8.14-13.74a195.28,195.28,0,0,1,29.23-34.57l.53.27a119.71,119.71,0,0,0-10,17q-7.47,14.94-7.47,24.69a11.07,11.07,0,0,0,3.67,8.47,12.27,12.27,0,0,0,8.61,3.41q6,0,14.41-7.61a86.49,86.49,0,0,0,11.37-12.64c0,.25,0,.51,0,.76a22.23,22.23,0,0,0,4.68,14.21q4.67,5.94,11.47,5.94,10,0,21-7.47a71.84,71.84,0,0,0,15.48-14.95q6.15-7.74,6.14-10.67Q718.94,87.21,717.34,87.21ZM694.12,70.46q6.68-7,10.14-7c1.6,0,2.41.75,2.41,2.27q0,5.59-8.08,12.27t-16.21,8.41A81,81,0,0,1,694.12,70.46Zm-203,0q6.67-7,10.14-7c1.61,0,2.41.75,2.41,2.27q0,5.59-8.08,12.27T479.4,86.41A81,81,0,0,1,491.14,70.46Z"/><path class="cls-1" d="M627.67,188.88q.14,0-9.14,11.94t-13.41,11.94c-2.14,0-3.2-.93-3.2-2.8q0-3.47,7.74-19.08l9.2-17.48q3.48-6.94,3.47-9.48,0-1.86-3.87-3.8a16.69,16.69,0,0,0-7.47-1.94q-6.54,0-23.89,19.09,4.27-9.75,4.27-11.08,0-2.67-4.2-5.2a16.38,16.38,0,0,0-8.61-2.54q-3.6,0-14.95,10.21-9.83,8.85-10.73,10,1.56-4,3.26-8,2.94-7.22,2.94-8.94t-4.81-3.34a19.81,19.81,0,0,0-6.4-1.47q-3.35,0-18.29,28.16c-1.12,2.14-2.18,4.16-3.18,6.11-.77,1-1.75,2.27-2.95,3.9a114.18,114.18,0,0,1-9.21,11.34q-6,6.13-9.74,6.14c-1.34,0-2-.76-2-2.27q0-4.26,11.75-24.75t11.74-24q0-1.6-3.33-2.4c-2.5-.53-3.79-.8-3.87-.8-1,0-2.9,1.45-5.74,4.34s-4.32,4.33-4.41,4.33a11.25,11.25,0,0,0-1-2.6,10.2,10.2,0,0,0-3.27-4.2,12.39,12.39,0,0,0-7.87-2.4q-15.75,0-30.7,17.88a72.24,72.24,0,0,0-10.62,16.38c-.81,1-1.79,2.25-3,3.77a76.92,76.92,0,0,1-12,12.81q-8.54,6.81-16.41,6.81-7.08,0-7.07-9.61,0-4.54,2.8-10.94a5.38,5.38,0,0,0,1.2.13,38.34,38.34,0,0,0,26.16-9.88Q457,176.47,457,167.79a10.77,10.77,0,0,0-2.54-7.07,7.34,7.34,0,0,0-5.74-3.07,22.7,22.7,0,0,0-4.33.73,25.61,25.61,0,0,1-5.81.74q-12.68,0-25.62,17.35a72.23,72.23,0,0,0-9.23,15.76c-.32.43-.66.91-1.05,1.45q-4.26,5.74-6.67,8.68-8.94,10.8-13.88,10.8c-1.24,0-1.87-.66-1.87-2q0-6.93,7.48-19.48a93,93,0,0,1,11.34-15.75c.27-.35,1.83-1.78,4.67-4.27q2.4-2.13,2.4-3.6a7.63,7.63,0,0,0-1-3.41q8.64-4.77,16.62-16.45,5.61-8.26,19.75-37.77,4.28-8.94,16.55-33,8-15.61,8-17.35,0-1.34-2-2.13a10,10,0,0,0-3.73-.8h-1.6c-2.32,0-3.87.26-4.68.8a92.41,92.41,0,0,0-6.8,8q-1.87-10.53-12.55-10.54-8.81,0-19.55,7a60.71,60.71,0,0,0-17.81,17.81,50.2,50.2,0,0,0-5.4,10.3q-2.28,3-6.48,8.32-9.34,11.94-13.48,11.94c-2,0-3.07-.93-3.07-2.8q0-3.47,7.74-19.08l9.08-17.48q3.46-6.94,3.47-9.48,0-1.86-3.81-3.8a16.49,16.49,0,0,0-7.54-1.94q-4.66,0-14.28,9.21L352.89,76.4l-.14-.13,2.94-7.34c1.51-4,2.27-6.72,2.27-8.14q0-2.4-3.87-4.14a13.77,13.77,0,0,0-5.34-1.33q-4,0-17.88,27.49-1.64,3.25-3.07,6.19c-.8,1-1.86,2.4-3.2,4.22a114.18,114.18,0,0,1-9.21,11.34q-6,6.14-9.74,6.14c-1.34,0-2-.76-2-2.27q0-4.28,11.74-24.75t11.74-24q0-1.61-3.33-2.4c-2.49-.53-3.78-.8-3.87-.8-1,0-2.9,1.44-5.74,4.34s-4.32,4.33-4.41,4.33a11.25,11.25,0,0,0-1-2.6,10.2,10.2,0,0,0-3.27-4.2,12.39,12.39,0,0,0-7.87-2.4q-15.75,0-30.7,17.88-14.4,17.2-14.41,32.69,0,8.41,4.54,13.35a13.07,13.07,0,0,0,10,4.54,20.68,20.68,0,0,0,10.41-3.21,38.89,38.89,0,0,0,7.61-5.87,39.16,39.16,0,0,0,3.2-3.2,14.67,14.67,0,0,0,1.2,2.93,17.14,17.14,0,0,0,3.47,5.34,10.65,10.65,0,0,0,2.95,1.93,83.75,83.75,0,0,0-20,5.52,66.77,66.77,0,0,0-22.16,14.68q-8.27,8.4-8.27,15.21a9.93,9.93,0,0,0,3.73,8.28,14.91,14.91,0,0,0,9.48,2.93Q269,169,277,161.12q9.21-9.35,9.21-25c0-.71-.18-1.07-.53-1.07s-.54.23-.8.67a52.91,52.91,0,0,1-8.94,11.88q-8.68,8.94-16.69,8.94-3.47,0-3.47-2.53,0-8.15,14.55-17.09a63.28,63.28,0,0,1,33.36-9.47,54.54,54.54,0,0,1,10.81.93q-19.21,13.62-34.56,37l-8.81,12.94A23,23,0,0,0,253.61,171q-15,0-25.89,11.75-10.41,11.47-10.41,25.62a17.15,17.15,0,0,0,4.54,12.28,15.1,15.1,0,0,0,11.47,4.8q16.81,0,36-19.75,5.07,9.88,9.87,14.41a23.47,23.47,0,0,0,16.68,6.54q22.43,0,39.37-20.55,16.16-19.49,16.15-42.7,0-27.36-20.55-37.24,7.2-5.87,12.94-5.87c2.32,0,3.47-.27,3.47-.8,0-.27-.58-.6-1.73-1a13.19,13.19,0,0,0-4.27-.6,34,34,0,0,0-11.67,2.31c.32-.49.64-1,1-1.62l8.14-13.74A195.28,195.28,0,0,1,368,70.26l.53.27a119.71,119.71,0,0,0-10,17Q351,102.42,351,112.17a11.07,11.07,0,0,0,3.67,8.47,12.27,12.27,0,0,0,8.61,3.41q6,0,14.41-7.61a87.42,87.42,0,0,0,11.63-13c0,.37,0,.75,0,1.12a20.19,20.19,0,0,0,4.8,13.61q4.81,5.61,11.35,5.61,7.2,0,13.34-6.94-.8,5.07-7.47,18Q399.73,157.67,388,157.68a9.38,9.38,0,0,1-6.4-2.34,7.39,7.39,0,0,1-1.33-1.53v-.16a3.32,3.32,0,0,0-1.21-3,11.06,11.06,0,0,1-.13-1.66q0-4.14,3.8-7.47a13.94,13.94,0,0,1,9.55-3.34q6.4,0,6.4,2.67v1.07a.24.24,0,0,0,.27.27c.44,0,1.15-.63,2.13-1.87a8.7,8.7,0,0,0,1.74-5.21,7.26,7.26,0,0,0-2.4-5.47,10.69,10.69,0,0,0-7.21-2.4q-8.28,0-15.08,6.54a22.34,22.34,0,0,0-7.21,16.41,16.61,16.61,0,0,0,.18,2.37,20.29,20.29,0,0,0-3,5.61q-.8,1.88-3.07,9.08a74.84,74.84,0,0,1-4.14,10.67A138.13,138.13,0,0,1,352,193.28a6.11,6.11,0,0,0-1.2,2.94q0,4,2,4a1.83,1.83,0,0,0,1.47-1.07q12-17.61,17.75-27.09a1.19,1.19,0,0,1,1.07-.4,12.52,12.52,0,0,1,4.14.94c1.69.62,2.53,1,2.53,1.2q0-.13-4.67,7.07a159.31,159.31,0,0,0-8.67,14.95q-4.68,9.74-4.68,15.48,0,6.93,4.14,10.74t10.81,3.8q5.21,0,13.21-7.6a91.06,91.06,0,0,0,10.83-12.36c0,.2,0,.41,0,.61a22.33,22.33,0,0,0,4.67,14.22q4.68,5.92,11.48,5.93,10,0,20.95-7.47a71.29,71.29,0,0,0,13.68-12.7c0,.67-.07,1.35-.07,2q0,8.41,4.54,13.35a13.07,13.07,0,0,0,10,4.54,20.68,20.68,0,0,0,10.41-3.21,56.07,56.07,0,0,0,10.81-9.07,14.85,14.85,0,0,0,1.2,2.94,17.2,17.2,0,0,0,3.47,5.33,10.34,10.34,0,0,0,7.21,2.81q5.19,0,13.21-7.48c1-1,2.08-2,3.11-3.15a16.17,16.17,0,0,0-1.25,4.62q0,2.54,3.87,4.8a14,14,0,0,0,6.94,2.27q2.28,0,8.68-9.54l12.68-19.15a121.39,121.39,0,0,1,15.88-17.75q7.33-7.06,8.27-7.07l.4.4q0,2.13-9.07,19.75-11.61,22.29-14,27.49a2.84,2.84,0,0,0-.13.8q0,2,4.27,3.87a20,20,0,0,0,8,1.87q1.61,0,5.87-7.87,7.74-14.28,9.61-17.22a120.38,120.38,0,0,1,25.76-29.62l.4.26a138.4,138.4,0,0,0-10,16.95q-7.35,14.94-7.34,24.69a11.07,11.07,0,0,0,3.67,8.47,12.23,12.23,0,0,0,8.6,3.41q5.88,0,14.28-7.61a93.84,93.84,0,0,0,13.08-14.81q5.61-8,5.61-10.15Q629.41,188.88,627.67,188.88ZM434.57,172.4q6.68-7,10.14-7c1.6,0,2.4.76,2.4,2.27q0,5.59-8.07,12.28t-16.22,8.4A80.64,80.64,0,0,1,434.57,172.4ZM293,89.35Q286,98.56,282.29,99.62v1.07c2.58,0,3.87.45,3.87,1.34q0,1.86-5.07,5.4T273.35,111q-4.14,0-4.14-6.68,0-10.4,9.21-25.35,9.48-15.61,17.22-15.61a4.65,4.65,0,0,1,3.93,2.13,8.63,8.63,0,0,1,1.54,5.2Q301.11,78.81,293,89.35ZM232.26,213.57a8.1,8.1,0,0,1-6.21-2.67,10,10,0,0,1-2.47-7.08,21.48,21.48,0,0,1,7-15.88,22.9,22.9,0,0,1,16.48-6.8q8.4,0,14.54,9.61Q243.07,213.57,232.26,213.57Zm76.06-92.09c-.85,0-1.7,0-2.55.06a38.9,38.9,0,0,0,7.62-5.77c1.66-1.59,3.32-3.34,5-5.22a16.08,16.08,0,0,0-1,4.42,8.22,8.22,0,0,0,3.07,6.14,13.69,13.69,0,0,0,2.68,2l-.27.14A57.58,57.58,0,0,0,308.32,121.48Zm24,36.44a71.93,71.93,0,0,1-9.21,36Q313,212.1,297.91,212.1q-6.14,0-10.67-5.74-2.4-3.08-7.07-13.08l13.07-17.48q.81-1.06,14.15-21a212.91,212.91,0,0,1,16.55-22Q332.34,140,332.35,157.92Zm79.26-46.82q-5.61,0-5.61-7.47,0-9.61,10-23.76,10.55-14.94,19.35-14.94c3.12,0,4.67,2.31,4.67,6.94q0,6.54-10.67,22.42Q418,111.1,411.61,111.1Zm80.21,80.18q-6.94,9.21-10.68,10.27v1.07c2.58,0,3.87.45,3.87,1.34q0,1.86-5.07,5.4t-7.74,3.54c-2.76,0-4.14-2.23-4.14-6.67q0-10.41,9.21-25.36,9.48-15.62,17.22-15.61a4.65,4.65,0,0,1,3.93,2.13A8.64,8.64,0,0,1,500,172.6Q500,180.73,491.82,191.28Z"/></g></g></svg>